# xmcd
#
# Track frame offsets:
#	150
#	3040
#	10713
#	22189
#	38447
#	51878
#	70869
#	84931
#	89020
#	106896
#	133328
#	146951
#	162801
#	181782
#	200514
#	204447
#	219900
#
# Disc length: 2954 seconds
#
# Revision: 0
# Processed by: cddbd v1.5.1PL2 Copyright (c) Steve Scherf et al.
# Submitted via: EasyCDDAExtractor 8.1.2.3
#
DISCID=de0b8811
DTITLE=Various Artist - Projet Fornox
DYEAR=2006
DGENRE=Rap
TTITLE0=Intro - Braquage de fornox - intro
TTITLE1=Yoka - De retour pour la première fois
TTITLE2=Moussa - La vie
TTITLE3=LIM - Tous suspects
TTITLE4=Yusiness - Les funérailles
TTITLE5=Yoka - Dans les rue de paris
TTITLE6=Da one - 60 Messures chronos
TTITLE7=Interlude - Le plan
TTITLE8=Dicidens - Quand j braque le rap
TTITLE9=Yoka - Série noire
TTITLE10=L'skadrille - ussite
TTITLE11=Bronze - L'exempt
TTITLE12=Suspect - Aucune gloire
TTITLE13=Yoka - Le son d MLV
TTITLE14=Blocus - Blocus
TTITLE15=Yoka - Y.O.K.A.
TTITLE16=Outro - Le rap rend fou
EXTD=
EXTT0=
EXTT1=
EXTT2=
EXTT3=
EXTT4=
EXTT5=
EXTT6=
EXTT7=
EXTT8=
EXTT9=
EXTT10=
EXTT11=
EXTT12=
EXTT13=
EXTT14=
EXTT15=
EXTT16=
PLAYORDER=
